<?xml version="1.0" encoding="UTF-8" standalone="no"?>
<!-- Created with Inkscape (http://www.inkscape.org/) -->

<svg
   width="297mm"
   height="210mm"
   viewBox="0 0 297 210"
   version="1.1"
   id="svg1"
   inkscape:export-filename="favicon.png"
   inkscape:export-xdpi="96"
   inkscape:export-ydpi="96"
   inkscape:version="1.3.2 (091e20e, 2023-11-25)"
   sodipodi:docname="favicon.svg"
   xmlns:inkscape="http://www.inkscape.org/namespaces/inkscape"
   xmlns:sodipodi="http://sodipodi.sourceforge.net/DTD/sodipodi-0.dtd"
   xmlns:xlink="http://www.w3.org/1999/xlink"
   xmlns="http://www.w3.org/2000/svg"
   xmlns:svg="http://www.w3.org/2000/svg">
  <sodipodi:namedview
     id="namedview1"
     pagecolor="#ffffff"
     bordercolor="#000000"
     borderopacity="0.25"
     inkscape:showpageshadow="2"
     inkscape:pageopacity="0.0"
     inkscape:pagecheckerboard="0"
     inkscape:deskcolor="#d1d1d1"
     inkscape:document-units="px"
     showborder="false"
     inkscape:zoom="0.5"
     inkscape:cx="237"
     inkscape:cy="496"
     inkscape:window-width="1920"
     inkscape:window-height="941"
     inkscape:window-x="0"
     inkscape:window-y="25"
     inkscape:window-maximized="0"
     inkscape:current-layer="layer1" />
  <defs
     id="defs1">
    <linearGradient
       id="linearGradient62"
       inkscape:collect="always">
      <stop
         style="stop-color:#81a1c1;stop-opacity:1;"
         offset="0"
         id="stop62" />
      <stop
         style="stop-color:#b48ead;stop-opacity:1;"
         offset="1"
         id="stop63" />
    </linearGradient>
    <linearGradient
       id="linearGradient60"
       inkscape:collect="always">
      <stop
         style="stop-color:#ebcb8b;stop-opacity:1;"
         offset="0"
         id="stop60" />
      <stop
         style="stop-color:#bf616a;stop-opacity:1;"
         offset="1"
         id="stop61" />
    </linearGradient>
    <linearGradient
       id="linearGradient9"
       inkscape:collect="always">
      <stop
         style="stop-color:#b48ead;stop-opacity:1;"
         offset="0"
         id="stop9" />
      <stop
         style="stop-color:#81a1c1;stop-opacity:1;"
         offset="1"
         id="stop10" />
    </linearGradient>
    <linearGradient
       id="linearGradient7"
       inkscape:collect="always">
      <stop
         style="stop-color:#bf616a;stop-opacity:1;"
         offset="0"
         id="stop7" />
      <stop
         style="stop-color:#ebcb8b;stop-opacity:1;"
         offset="1"
         id="stop8" />
    </linearGradient>
    <linearGradient
       inkscape:collect="always"
       xlink:href="#linearGradient7"
       id="linearGradient8"
       x1="88.767709"
       y1="71.430524"
       x2="158.22083"
       y2="71.430524"
       gradientUnits="userSpaceOnUse" />
    <linearGradient
       inkscape:collect="always"
       xlink:href="#linearGradient9"
       id="linearGradient10"
       x1="78.845834"
       y1="84.93125"
       x2="158.22083"
       y2="84.93125"
       gradientUnits="userSpaceOnUse" />
    <clipPath
       clipPathUnits="userSpaceOnUse"
       id="clipPath49">
      <path
         id="path50"
         style="fill:#ff0000;fill-opacity:1;fill-rule:nonzero;stroke:none;stroke-width:0.264583"
         d="m 145.09037,79.125919 v 78.708891 h 78.7492 V 79.125919 Z m 17.56172,68.872281 c 0.35909,0.11246 0.49898,0.0452 0.39532,0.25683 -0.0737,0.1362 -0.13812,0.27735 -0.216,0.41135 -0.13852,0.25496 -0.27505,0.51073 -0.41703,0.76378 -0.12798,0.25981 -0.26145,0.51662 -0.39688,0.77256 0.0636,-0.0656 0.12649,-0.13198 0.18759,-0.19999 0.19972,-0.21655 0.40494,-0.42788 0.59376,-0.65422 0.0572,-0.0656 0.11519,-0.13089 0.17208,-0.19689 0.10123,-0.17832 0.21752,-0.34717 0.33021,-0.51831 0.0404,-0.0568 0.0725,-0.12319 0.12351,-0.17209 0.015,-0.0144 0.0297,-0.0503 0.0481,-0.0403 0.12962,0.0681 0.23908,0.16923 0.35863,0.25373 -0.0448,0.14069 -0.12563,0.26609 -0.20463,0.38964 -0.0812,0.12715 -0.17533,0.24453 -0.27286,0.35915 -0.006,0.0104 -0.012,0.0205 -0.0176,0.031 -0.18689,0.33578 -0.36301,0.67759 -0.54415,1.01648 -0.15406,0.28941 -0.31475,0.5752 -0.44958,0.87436 -0.0686,0.14708 -0.13387,0.29532 -0.19017,0.44752 -0.16072,0.43423 -0.59093,0.25016 -0.42995,-0.18397 0.0581,-0.1567 0.12577,-0.30945 0.19637,-0.46095 0.0548,-0.12157 0.11465,-0.24074 0.1757,-0.35915 -0.0471,0.046 -0.0948,0.0917 -0.14211,0.13746 -0.12295,0.12171 -0.23612,0.25257 -0.36225,0.37104 -0.15808,0.14451 -0.37082,0.15053 -0.46612,-0.0801 -0.0266,-0.0644 -7.9e-4,-0.15468 0.0139,-0.22118 0.0795,-0.21373 0.17426,-0.42165 0.27284,-0.62735 -0.0438,-0.0342 -0.10237,-0.0827 -0.18603,-0.14728 -0.035,-0.027 0.0496,-0.19724 0.0687,-0.23254 0.0283,-0.0496 0.061,-0.0963 0.0956,-0.1416 0.0536,-0.07 0.11027,-0.11611 0.16536,-0.14262 0.12815,-0.16757 0.25683,-0.33488 0.37309,-0.51108 0.13597,-0.20351 0.26634,-0.41093 0.38914,-0.6227 0.0818,-0.15006 0.16905,-0.29632 0.25786,-0.44235 0.0113,-0.0212 0.0735,-0.13123 0.0775,-0.13023 z m 2.1456,0.093 h 5.3e-4 c 0.15449,-0.002 0.26873,0.17588 0.13953,0.43408 -0.0216,0.0432 -0.01,0.0207 -0.0346,0.0677 -0.0574,0.10174 -0.0926,0.21492 -0.15244,0.31574 -0.0545,0.10134 -0.11418,0.19912 -0.1757,0.29611 0.3208,0.14911 0.37833,0.10152 0.29455,0.27595 -0.0673,0.15383 -0.11173,0.31648 -0.17673,0.47129 -0.10854,0.26867 -0.22884,0.53221 -0.35243,0.79426 -0.072,0.15181 -0.14567,0.30316 -0.21704,0.45527 0.16423,-0.17944 0.32302,-0.36381 0.47904,-0.55035 0.15459,-0.19266 0.29993,-0.39295 0.46353,-0.57826 0.0989,-0.1169 0.19662,-0.23544 0.28629,-0.35967 0.0354,-0.0592 0.0698,-0.11909 0.10439,-0.1788 0.11375,-0.182 0.12417,-0.10161 0.43615,0.18552 0.0141,0.013 -0.10056,0.18152 -0.10956,0.19482 -0.0143,0.021 -0.0297,0.0413 -0.0444,0.062 -0.0175,0.0291 -0.0344,0.0586 -0.0532,0.0868 -0.11925,0.18329 -0.25588,0.35323 -0.38188,0.53175 -0.1573,0.22973 -0.30714,0.46495 -0.47439,0.68781 -0.15374,0.21138 -0.30917,0.42117 -0.44649,0.64389 -0.11482,0.17982 -0.23014,0.36061 -0.32504,0.55191 -0.0464,0.0954 -0.10401,0.19037 -0.10801,0.2992 -0.004,0.0456 0.002,0.0933 0.0171,0.13643 0.0206,0.053 0.0535,0.10089 0.0894,0.14469 0.29307,0.35793 -0.0668,0.64512 -0.36536,0.29146 -0.064,-0.0758 -0.11337,-0.16127 -0.15347,-0.25167 -0.045,-0.1044 -0.0545,-0.21696 -0.0548,-0.32918 7.9e-4,-0.15328 0.0577,-0.29199 0.12195,-0.42736 -0.005,0.002 -0.009,0.004 -0.0134,0.007 -0.17198,0.0472 -0.33731,-0.0805 -0.33331,-0.26045 0.002,-0.0869 0.0331,-0.16596 0.0636,-0.24546 0.0742,-0.17387 0.15687,-0.34433 0.23307,-0.51729 0.0838,-0.19815 0.177,-0.39164 0.27026,-0.58549 -0.14774,0.1776 -0.3024,0.34893 -0.45371,0.52348 -0.0548,0.0504 -0.22091,0.2922 -0.29922,0.29146 -0.0936,-7.9e-4 -0.18331,-0.0389 -0.27492,-0.0584 -0.0169,-0.0822 -0.0426,-0.16299 -0.0506,-0.24649 -0.002,-0.0241 0.0429,-0.11887 0.0563,-0.14573 -0.007,-0.004 -0.007,-0.006 0.003,-0.005 0.001,-0.002 0.006,-0.0121 0.006,-0.0124 0.045,-0.091 0.0995,-0.17812 0.15089,-0.26562 0.16088,-0.26144 0.33522,-0.5139 0.50747,-0.7679 0.17034,-0.26744 0.34609,-0.53138 0.51624,-0.79892 0.12041,-0.18778 0.24827,-0.37101 0.35347,-0.56793 0.0576,-0.10449 0.0983,-0.21688 0.15555,-0.32143 0.0173,-0.034 0.009,-0.017 0.0253,-0.0496 0.0773,-0.15521 0.18407,-0.22303 0.27698,-0.2253 z m -3.53156,2.86752 c -0.0426,0.0167 -0.0471,0.0341 0,0 z" />
    </clipPath>
    <linearGradient
       inkscape:collect="always"
       xlink:href="#linearGradient60"
       id="linearGradient61"
       x1="145.09067"
       y1="114.98136"
       x2="223.83957"
       y2="114.98136"
       gradientUnits="userSpaceOnUse" />
    <linearGradient
       inkscape:collect="always"
       xlink:href="#linearGradient62"
       id="linearGradient63"
       x1="144.93379"
       y1="104.71377"
       x2="224.0008"
       y2="104.71377"
       gradientUnits="userSpaceOnUse"
       gradientTransform="translate(21.43125,-14.022917)" />
  </defs>
  <g
     inkscape:label="Layer 1"
     inkscape:groupmode="layer"
     id="layer1">
    <g
       id="g72"
       transform="matrix(0.20397769,0,0,0.20397769,112.94733,83.582343)">
      <g
         id="g10"
         transform="translate(12.699999,33.569477)">
        <path
           id="path1"
           style="opacity:1;fill:url(#linearGradient10);fill-opacity:1;stroke:#eceff4;stroke-width:0.529167;stroke-dasharray:none;stroke-opacity:1"
           d="m 118.53333,45.24375 a 39.687499,39.687499 0 0 0 -39.687496,39.6875 39.687499,39.687499 0 0 0 39.687496,39.6875 39.687499,39.687499 0 0 0 39.6875,-39.6875 39.687499,39.687499 0 0 0 -39.6875,-39.6875 z m 0,19.84375 A 19.843749,19.843749 0 0 1 138.37708,84.93125 19.843749,19.843749 0 0 1 118.53333,104.775 19.843749,19.843749 0 0 1 98.689584,84.93125 19.843749,19.843749 0 0 1 118.53333,65.0875 Z" />
        <path
           id="path5"
           style="opacity:1;fill:url(#linearGradient8);fill-opacity:1;stroke:#eceff4;stroke-width:0.529167;stroke-dasharray:none;stroke-opacity:1"
           d="m 158.22083,18.242297 c -10.9934,0 -19.84375,8.850357 -19.84375,19.84375 V 84.93125 A 19.843749,19.843749 0 0 1 118.53333,104.775 19.843749,19.843749 0 0 1 98.689584,84.93125 19.843749,19.843749 0 0 1 115.70922,65.289555 a 29.765623,29.765623 0 0 0 -26.941511,29.56357 29.765623,29.765623 0 0 0 29.765621,29.765625 39.687499,39.687499 0 0 0 39.6875,-39.6875 z" />
        <path
           style="opacity:1;fill:#5e81ac;fill-opacity:1;stroke-width:76.0132"
           d="m 119.50692,65.111271 a 29.765623,29.765623 0 0 1 1.97507,0.203089 19.843749,19.843749 0 0 0 -1.97507,-0.203089 z"
           id="path3" />
      </g>
      <g
         id="g63"
         transform="translate(11.616832,14.308868)">
        <path
           id="path10"
           clip-path="url(#clipPath49)"
           style="display:inline;opacity:1;fill:url(#linearGradient61);fill-opacity:1;stroke:#eceff4;stroke-width:0.529167;stroke-dasharray:none;stroke-opacity:1"
           inkscape:label="path10"
           transform="translate(21.43125,-14.022917)"
           d="m 184.47401,79.119719 -0.009,0.0062 a 39.374668,39.374668 0 0 0 -39.37434,39.374861 39.374668,39.374668 0 0 0 15.8321,31.37844 c 9.9e-4,-0.005 0.002,-0.009 0.003,-0.0145 -0.001,-0.0277 0.007,-0.0527 0.015,-0.078 7.1e-4,-0.003 0.001,-5.3e-4 0.006,-0.0264 0.002,-0.006 0.003,-0.007 0.004,-0.01 0.002,-0.009 0.006,-0.0209 0.0103,-0.0382 -7.6e-4,0.006 -6.4e-4,-4e-4 -0.001,0.007 -5e-4,0.004 0.001,-0.005 0.003,-0.0124 2e-4,-5e-4 3.5e-4,-10e-4 5.2e-4,-0.002 1.5e-4,-6.7e-4 3.7e-4,-5.8e-4 5.2e-4,-0.001 l 5.1e-4,-5.1e-4 c 1.3e-4,-6.5e-4 3.9e-4,-6.3e-4 5.2e-4,-0.001 v -5.1e-4 -5.2e-4 l 5.2e-4,-5.2e-4 5.1e-4,-5.1e-4 5.2e-4,-5.2e-4 c 4.3e-4,-0.001 -2e-5,-1.6e-4 5.2e-4,-0.003 v -5.2e-4 -5.2e-4 l 5.1e-4,-5.1e-4 c 0.003,-0.015 0.003,-0.0226 0.006,-0.0336 0.003,-0.0109 0.008,-0.0198 0.0124,-0.0289 v -5.2e-4 c 0.0107,-0.0183 0.0195,-0.0375 0.031,-0.0553 4.6e-4,-6.4e-4 -1.9e-4,-4.4e-4 0.002,-0.002 9.6e-4,-0.002 0.002,-0.003 0.003,-0.005 0.002,-0.003 0.007,-0.01 0.005,-0.008 -0.008,0.013 -0.0384,0.0623 0.008,-0.0124 0.005,-0.006 0.009,-0.0124 0.0139,-0.0181 0.003,-0.004 0.006,-0.008 0.009,-0.0114 0.001,-0.002 0.002,-0.003 0.004,-0.005 0.001,-0.001 0.002,-0.003 0.004,-0.005 0.003,-0.004 0.006,-0.008 0.0103,-0.0109 l 0.009,-0.009 c 0.009,-0.0137 0.0212,-0.0343 0.007,-0.009 0.004,-0.006 0.008,-0.0123 0.0129,-0.0181 6.6e-4,-8.2e-4 0.002,-0.002 0.003,-0.004 l 0.006,-0.006 0.004,-0.004 c 3.5e-4,-4.1e-4 1.7e-4,-8.2e-4 5.2e-4,-0.002 0.003,-0.003 0.005,-0.006 0.008,-0.009 5.1e-4,-5.8e-4 8.3e-4,-0.001 0.002,-0.002 5.8e-4,-6.4e-4 0,-0.001 0.002,-0.002 5.7e-4,-6.3e-4 0.001,-0.001 0.002,-0.002 6.6e-4,-7.2e-4 10e-4,4.7e-4 0.002,-0.002 1.5e-4,-2.3e-4 0.001,-0.001 0.001,-0.001 l 5.2e-4,-5.2e-4 c 0.002,-0.002 0.005,-0.005 0.0103,-0.0119 0.003,-0.003 0.007,-0.008 0.0109,-0.0114 0.008,-0.0161 0.0194,-0.0336 0.0439,-0.0625 v -5.2e-4 c 0.005,-0.005 0.01,-0.0101 0.0145,-0.0155 0.004,-0.004 0.008,-0.008 0.0103,-0.0114 6.4e-4,-7.3e-4 7.3e-4,1e-5 0.002,-0.002 2.4e-4,-2.7e-4 2.8e-4,-0.001 5.2e-4,-0.001 0.003,-0.002 0.006,-0.004 0.008,-0.007 0.009,-0.0147 0.018,-0.0292 0.0284,-0.0429 0.0149,-0.0155 0.0293,-0.0354 0.0475,-0.0486 3.5e-4,-3.4e-4 0.001,-0.001 0.001,-0.001 l 0.006,-0.006 0.008,-0.008 c 6.2e-4,-6.3e-4 10e-4,-0.001 0.002,-0.002 l 5.1e-4,-5.2e-4 h 5.2e-4 v -5.1e-4 l 5.2e-4,-5.2e-4 5.2e-4,-5.2e-4 c 2.1e-4,-3.1e-4 3e-4,-0.001 5.1e-4,-0.001 0.004,-0.006 0.0106,-0.0159 0.0155,-0.0227 7.5e-4,-8.8e-4 0.004,-0.004 -0.003,0.006 0.004,-0.006 0.008,-0.011 0.0124,-0.0165 l 0.0191,-0.0191 c 0.008,-0.007 0.0159,-0.0132 0.0243,-0.0191 l 5.2e-4,-5.1e-4 5.2e-4,-5.2e-4 c 0.001,-0.002 0.001,-0.002 0.003,-0.004 10e-4,-0.002 0.002,-0.004 0.003,-0.007 0.002,-0.006 0.0202,-0.028 0.0341,-0.0434 0.003,-0.004 0.006,-0.008 0.009,-0.0114 l 0.009,-0.009 c 6.7e-4,-7.1e-4 0.001,-3e-4 0.002,-0.002 7.1e-4,-8.4e-4 8.3e-4,-0.002 0.002,-0.003 0.002,-0.003 0.005,-0.005 0.007,-0.007 v -5.1e-4 l 0.004,-0.004 c 7.4e-4,-8.2e-4 10e-4,-0.002 0.002,-0.003 h 5.2e-4 v -5.1e-4 h 5.1e-4 v -5.2e-4 l 5.2e-4,-5.2e-4 c 0.002,-0.004 0.004,-0.007 0.007,-0.0114 0.005,-0.006 0.01,-0.0121 0.015,-0.0181 l 0.003,-0.003 c 5.3e-4,-9.4e-4 -6.8e-4,-7.6e-4 0.003,-0.003 0.004,-0.005 0.007,-0.0125 0.006,-0.008 v -5.1e-4 c 0.0127,-0.0192 0.0274,-0.0376 0.0434,-0.0548 0.003,-0.003 -0.007,0.008 -0.01,0.0114 -0.002,0.001 -0.005,0.006 -0.004,0.004 0.007,-0.0101 0.015,-0.02 0.0243,-0.0294 0.0158,-0.0307 0.0375,-0.0567 0.062,-0.0811 -0.002,0.002 -0.003,0.003 -0.006,0.005 0.003,-0.004 0.007,-0.007 0.0103,-0.0109 3.4e-4,-4.9e-4 9.2e-4,-7.5e-4 0.001,-10e-4 0.003,-0.005 -0.002,0.003 0.007,-0.0103 0.001,-0.001 9e-4,-9.8e-4 0.002,-0.003 0.0105,-0.0219 0.0223,-0.041 0.0367,-0.0579 0.008,-0.0131 0.0177,-0.0279 0.0227,-0.0356 0.003,-0.004 0.005,-0.007 0.008,-0.0109 l 0.003,-0.006 c 0.001,-0.002 0.001,-0.002 0.003,-0.004 3.5e-4,-0.001 1.8e-4,-0.003 5.2e-4,-0.004 0.003,-0.011 0.008,-0.0214 0.0124,-0.032 0.004,-0.007 0.007,-0.0135 0.01,-0.0207 0.011,-0.0207 0.025,-0.0398 0.0398,-0.0579 v -5.2e-4 c -0.007,0.009 0.007,-0.0104 0.015,-0.0217 0.003,-0.006 0.006,-0.0119 0.009,-0.0176 0.002,-0.003 0.004,-0.005 0.006,-0.008 0.005,-0.009 0.0106,-0.0174 0.0145,-0.0264 8.1e-4,-0.002 7.2e-4,-10e-5 0.001,-0.002 -0.009,0.009 0.008,-0.0188 0.0212,-0.0372 0.003,-0.004 0.005,-0.008 0.008,-0.0124 0.008,-0.0119 0.0161,-0.0226 0.0253,-0.0331 0.002,-0.006 -10e-4,0.001 0.002,-0.008 0.006,-0.0138 0.0153,-0.029 0.0238,-0.0439 -4.2e-4,0.001 0.001,-0.002 0.002,-0.003 0.003,-0.006 0.005,-0.0124 0.009,-0.0176 5e-4,-0.001 0.005,-0.009 0.006,-0.0103 2.3e-4,-5.5e-4 0.002,-0.003 0.002,-0.003 0.001,-0.003 0.008,-0.017 0.0103,-0.0196 0.003,-0.006 0.007,-0.0116 0.0103,-0.0176 0.001,-0.003 0.008,-0.0128 0.015,-0.0212 2.8e-4,-0.001 2.2e-4,0 5.2e-4,-0.001 0.01,-0.0319 0.024,-0.058 0.0429,-0.0858 10e-4,-0.003 0.007,-0.0144 0.008,-0.016 0.003,-0.008 0.007,-0.0162 0.0103,-0.0238 l 0.006,-0.009 c 0.001,-0.002 0.002,-0.004 0.003,-0.005 l 0.006,-0.009 c 0.004,-0.007 0.009,-0.0144 0.0134,-0.0212 0.003,-0.009 0.007,-0.0174 0.0191,-0.0429 0.01,-0.0142 0.008,-0.0121 0.01,-0.0145 -0.002,0.005 -0.007,0.0154 -0.005,0.0119 0.003,-0.006 0.006,-0.0117 0.009,-0.0176 -1.4e-4,2e-4 0.002,-0.004 0.002,-0.003 1e-4,-1.3e-4 0.002,-0.003 0.002,-0.004 9.9e-4,-0.002 0.002,-0.004 0.003,-0.006 h 5.2e-4 5.2e-4 c 0.002,-0.002 0.002,-0.003 0.004,-0.006 l 5.2e-4,-5.1e-4 c 5.3e-4,-0.001 9.5e-4,-0.002 0.002,-0.003 9.4e-4,-0.003 0.003,-0.004 0.004,-0.007 -0.002,0.004 -0.007,0.0159 -0.005,0.0119 0.008,-0.0154 0.008,-0.0156 0.0103,-0.0186 0.001,-0.003 0.003,-0.005 0.004,-0.008 l 5.2e-4,-5.1e-4 v -5.2e-4 c 0.002,-0.003 0.004,-0.005 0.006,-0.007 0.001,-0.002 0.002,-0.002 0.003,-0.004 5e-5,-1.3e-4 0.001,-9.6e-4 0.001,-0.002 1.4e-4,-3.4e-4 -3e-5,-10e-4 0,-0.002 3.3e-4,-7e-4 0.004,-0.006 0.005,-0.007 3.7e-4,-6.6e-4 1.7e-4,-9e-4 0.002,-0.002 3.2e-4,-5.2e-4 8.9e-4,-7.4e-4 10e-4,-0.002 7.7e-4,-0.001 0.002,-0.003 0.003,-0.005 3.4e-4,-5.4e-4 0.001,-8.2e-4 0.001,-0.002 v -5.2e-4 c 1.9e-4,-3.8e-4 0.001,-0.001 0.001,-0.001 0.002,-0.006 -3.7e-4,5.3e-4 0.004,-0.0103 5.8e-4,-0.001 0.001,-0.002 0.002,-0.003 8e-4,-0.002 0.002,-0.004 0.003,-0.006 0.0303,-0.0585 0.0139,-0.0283 0.0434,-0.0754 9.7e-4,-10e-4 0.002,-0.003 0.003,-0.004 3.1e-4,-7e-4 0.002,-0.003 0.002,-0.004 h 5.1e-4 5.2e-4 c 0.003,-0.004 0.007,-0.01 0.0119,-0.0155 3.6e-4,-7.7e-4 0.003,-0.006 0.004,-0.007 1.1e-4,-1.9e-4 9.4e-4,-8.1e-4 0.002,-0.002 2.1e-4,-4.5e-4 3e-4,-0.001 5.1e-4,-0.002 v -5.1e-4 c 0.004,-0.008 0.006,-0.0128 0.0119,-0.0258 6.9e-4,-10e-4 0.002,-0.003 0.003,-0.004 a 29.531,29.531 0 0 1 -0.009,-0.009 c 1.63336,-2.88592 2.57607,-6.21872 2.57607,-9.78441 v -19.53111 a 19.687334,19.687334 0 0 1 19.68717,-19.687174 19.687334,19.687334 0 0 1 3.43493,0.338481 19.687334,19.687334 0 0 0 -0.41754,-0.103353 29.531,29.531 0 0 1 0.81907,0.142627 19.687334,19.687334 0 0 1 0.007,5.17e-4 29.531,29.531 0 0 1 24.82743,22.357812 c -5.49955,3.48411 -9.1395,9.6186 -9.1395,16.63774 0,3.54737 0.93488,6.86622 2.56367,9.73481 0.009,0.007 0.0178,0.0128 0.0243,0.0191 0.0111,0.005 0.0207,0.009 0.0253,0.0129 0.0576,0.0424 0.051,0.0365 0.093,0.093 2.7e-4,4e-4 2.9e-4,10e-4 5.2e-4,10e-4 2.6e-4,5.6e-4 0.001,-4.7e-4 0.001,0.002 1.4e-4,1.4e-4 5.2e-4,0.001 5.2e-4,0.002 3.1e-4,6.3e-4 3.3e-4,-2.5e-4 5.1e-4,0.002 h 5.2e-4 c 4.7e-4,4.7e-4 4.2e-4,0.001 5.2e-4,0.001 0.003,0.005 0.009,0.0113 0.0124,0.0176 8.7e-4,10e-4 0.002,0.002 0.003,0.004 l 5.2e-4,5.2e-4 5.2e-4,5.1e-4 c 7.4e-4,7.6e-4 0.001,0.002 0.002,0.003 5.6e-4,5.6e-4 -3.3e-4,0.002 0.002,0.003 l 0.003,0.003 c 0.009,0.0102 0.013,0.0161 0.0326,0.0434 -0.0224,-0.0343 0.009,0.013 0.0181,0.0284 l 5.2e-4,5.1e-4 c 0.009,0.0131 0.0242,0.0349 0.0253,0.0372 l -5.2e-4,5.2e-4 c 0.0213,0.054 0.0346,0.10465 0.0413,0.15089 0.007,0.009 0.0136,0.0176 0.0264,0.0377 0.0132,0.025 0.0208,0.0517 0.0258,0.0791 4.9e-4,10e-4 4.4e-4,0.002 0.002,0.004 0.001,0.003 0.002,0.007 0.003,0.0103 0.004,0.0101 0.008,0.0205 0.0119,0.031 v 5.1e-4 c 7.5e-4,0.003 0.002,0.005 0.003,0.008 7e-4,10e-4 9.2e-4,0.003 0.002,0.004 0.004,0.008 0.007,0.0161 0.0119,0.0248 l 0.006,0.0181 c 6.9e-4,0.002 6.2e-4,0.004 0.002,0.006 2.6e-4,4.7e-4 2.4e-4,8.2e-4 5.1e-4,0.002 0.001,0.002 0.002,0.004 0.004,0.007 10e-4,0.003 0.002,0.006 0.004,0.008 8.2e-4,0.001 0.002,0.002 0.003,0.004 0.009,0.0145 0.0163,0.0303 0.0217,0.0465 0.004,0.007 0.007,0.0125 0.0103,0.0191 0.004,0.006 0.008,0.0112 0.0129,0.0186 -0.003,-0.004 -0.005,-0.007 -0.007,-0.009 0.004,0.006 0.008,0.0122 0.0119,0.0181 0.002,0.003 0.004,0.007 0.006,0.01 v 5.2e-4 c 0.003,0.005 0.006,0.0107 0.008,0.016 l 5.1e-4,5.2e-4 c 3.8e-4,6.5e-4 4.1e-4,8e-4 5.2e-4,0.002 0.005,0.009 0.0107,0.018 0.0145,0.0274 -0.009,-0.0156 0.0112,0.0189 0.0155,0.0274 0.004,0.006 0.009,0.0228 0.0129,0.0398 5.8e-4,10e-4 0.002,0.003 0.002,0.004 0.005,0.0117 0.01,0.0225 0.0134,0.0336 l 5.1e-4,5.1e-4 5.2e-4,0.001 c 8.7e-4,0.001 -4.3e-4,-8.1e-4 5.2e-4,0.002 l 5.1e-4,5.2e-4 v 5.2e-4 c 0.003,0.006 0.0133,0.019 0.008,0.0181 0.006,0.0126 0.0104,0.0257 0.0155,0.0398 9.3e-4,0.005 0.003,0.009 0.004,0.0134 0.005,0.007 0.009,0.0121 0.0124,0.0191 0.0175,0.0114 0.0353,0.0233 0.0491,0.0403 0.005,0.007 0.0101,0.0142 0.015,0.0212 0.003,0.004 0.007,0.009 0.0103,0.0129 8.6e-4,0.001 0.002,0.002 0.003,0.004 2.5e-4,2.7e-4 2.5e-4,10e-4 5.1e-4,10e-4 h 5.2e-4 v 5.2e-4 c 2.6e-4,2.6e-4 0.001,2.4e-4 0.001,5.2e-4 v 5.1e-4 h 5.1e-4 v 5.2e-4 c 5.5e-4,6.1e-4 0.001,4.1e-4 0.001,5.2e-4 h 5.1e-4 c 3.4e-4,3.7e-4 2.2e-4,10e-4 5.2e-4,10e-4 5e-4,5.5e-4 7e-4,8.1e-4 0.002,0.002 v 5.1e-4 h 5.1e-4 c 0.004,0.004 0.01,0.009 0.0124,0.0119 3e-4,3.1e-4 2.9e-4,8.1e-4 5.1e-4,0.002 l 5.2e-4,5.1e-4 c 4e-4,3e-4 0.001,-1.2e-4 0.002,0.002 5.9e-4,6.3e-4 3.1e-4,3.4e-4 0.002,0.002 l 5.2e-4,5.1e-4 5.2e-4,5.2e-4 c 0.004,0.004 0.0105,0.009 0.0129,0.0124 0.003,0.004 0.006,0.007 0.009,0.0109 -0.0151,-0.0214 5.7e-4,0.001 0.0114,0.0155 0.003,0.003 0.006,0.006 0.008,0.0103 0.0233,0.0391 0.0278,0.0468 0.0341,0.0651 l 0.001,5.1e-4 c 0.008,0.01 0.0149,0.0199 0.0217,0.031 0.003,0.006 0.007,0.0116 0.0103,0.0176 0.002,0.003 0.005,0.009 0.0103,0.0201 v 5.2e-4 c 3.2e-4,7.2e-4 6.2e-4,0.003 0.002,0.004 v 5.2e-4 l 5.2e-4,5.2e-4 c 0.002,0.002 0.002,0.002 0.0114,0.015 l 0.005,0.008 c 0.004,0.005 0.007,0.0103 0.008,0.0124 0.006,0.0132 0.0109,0.0244 0.015,0.0346 l 5.2e-4,5.2e-4 v 5.1e-4 c 0.003,0.004 0.006,0.008 0.008,0.0119 l 5.1e-4,5.2e-4 5.2e-4,5.1e-4 v 5.2e-4 c 6.8e-4,9e-4 6.4e-4,2.3e-4 0.002,0.003 0.0159,0.0191 0.0287,0.0398 0.0393,0.0615 2.8e-4,5.7e-4 4.2e-4,-7.2e-4 5.2e-4,0.002 l 5.1e-4,5.2e-4 c 0.002,0.003 0.005,0.007 0.006,0.0119 0.002,0.004 0.004,0.009 0.006,0.0129 2.3e-4,7e-4 5.2e-4,5e-5 5.2e-4,0.002 8e-4,10e-4 0.002,0.002 0.002,0.003 l 5.2e-4,5.2e-4 c 3.7e-4,5.5e-4 3.9e-4,0.002 5.2e-4,0.002 0.004,0.006 0.004,0.006 0.006,0.015 v 5.2e-4 l 5.1e-4,5.2e-4 v 5.1e-4 l 5.2e-4,5.2e-4 c 2.4e-4,8e-4 2.3e-4,5.1e-4 5.2e-4,0.002 3.8e-4,0.001 2e-4,0.001 5.1e-4,0.002 v 5.1e-4 c 0.0152,0.0108 0.0284,0.0229 0.0403,0.0367 v 5.2e-4 c -0.002,-0.002 0.003,0.002 0.005,0.004 2.2e-4,10e-5 0.009,0.009 0.0124,0.015 2.7e-4,4.6e-4 2.4e-4,3.2e-4 5.1e-4,0.002 v 5.2e-4 h 5.2e-4 5.2e-4 v 5.1e-4 5.2e-4 h 5.1e-4 l 5.2e-4,5.2e-4 c 7e-4,6.7e-4 3.7e-4,5.7e-4 0.002,0.002 3.8e-4,3.2e-4 3.5e-4,0.001 5.1e-4,0.001 6.8e-4,6.9e-4 9e-4,6.1e-4 0.002,0.002 l 0.006,0.006 c 8.3e-4,7.9e-4 0,-6e-4 0.002,0.003 0.002,0.001 1e-5,6e-5 0.002,0.001 0.0323,0.0208 0.0563,0.0512 0.0765,0.0832 6.6e-4,0.001 0.001,0.002 0.001,0.002 l 5.2e-4,5.2e-4 c 0.003,0.002 -6.3e-4,-5e-5 0.003,0.003 8.9e-4,7.9e-4 -1.4e-4,0.001 0.002,0.002 0.003,0.003 0.006,0.005 0.009,0.008 0.002,10e-4 0.006,0.006 0.005,0.004 0.0126,0.011 0.0256,0.0228 0.0372,0.0362 0.002,0.003 0.005,0.006 0.007,0.009 0.002,0.003 0.004,0.007 0.006,0.0103 l 5.1e-4,5.2e-4 c 9.8e-4,0.001 5.6e-4,-3e-5 0.002,0.002 0.001,0.001 0.002,7.7e-4 0.002,0.002 0.003,0.003 0.003,0.003 0.005,0.006 l 0.009,0.009 c 9.8e-4,0.002 0.003,0.004 0.005,0.006 0.009,0.008 0.018,0.0159 0.0279,0.0253 0.008,0.009 0.0146,0.0184 0.0212,0.0279 6.5e-4,6.9e-4 3.1e-4,0.001 0.002,0.002 0.001,0.002 0.003,0.003 0.004,0.005 6.9e-4,5.8e-4 -9e-5,7.8e-4 5.2e-4,0.002 0.003,0.004 0.007,0.008 0.009,0.0129 2.4e-4,4.1e-4 3.8e-4,0.001 5.2e-4,0.001 v 5.1e-4 l 5.2e-4,5.2e-4 h 5.1e-4 c 7e-4,6.8e-4 0.001,4.7e-4 0.002,0.002 10e-4,0.001 0.003,0.002 0.004,0.004 5.4e-4,4.9e-4 6.1e-4,6.2e-4 0.002,0.002 0.005,0.005 0.0106,0.0105 0.0155,0.0155 0.005,0.005 0.0139,0.009 0.0145,0.015 v 5.2e-4 c 0.004,0.004 0.009,0.009 0.0134,0.0129 0.007,0.008 0.0119,0.0165 0.0176,0.0248 0.004,0.006 0.0109,0.012 0.0145,0.0186 l 5.2e-4,5.2e-4 h 5.2e-4 c 0.001,0.001 0.003,0.002 0.004,0.004 5.5e-4,5e-4 5.8e-4,10e-4 0.002,0.002 0.005,0.005 0.0106,0.01 0.0155,0.015 0.005,0.005 0.0144,0.009 0.015,0.0155 0.002,0.002 0.001,4.3e-4 0.003,0.003 0.004,0.003 0.007,0.007 0.0114,0.0103 0.0148,0.016 0.0268,0.0333 0.0367,0.0522 0.004,0.005 0.008,0.011 0.0119,0.0155 A 39.374668,39.374668 0 0 0 223.86799,118.5106 39.374668,39.374668 0 0 0 184.49313,79.136255 Z m 22.1356,68.828871 c 0.006,0.005 0.012,0.0104 0.0186,0.0155 0.006,0.005 -0.01,-0.0115 -0.016,-0.0155 -1.3e-4,-6e-5 -0.002,-2e-5 -0.003,0 z m -44.48979,0.0382 v 5.2e-4 c -3.1e-4,1.9e-4 -2.8e-4,4.6e-4 -0.002,0.002 3.4e-4,-6.8e-4 4e-4,-5.1e-4 5.2e-4,-0.002 z m 44.56834,0.0207 c 10e-4,0.001 10e-4,2.8e-4 0.004,0.006 0.004,0.006 0.008,0.0126 0.0134,0.0186 -0.003,-0.005 -0.012,-0.0178 -0.017,-0.0248 z m 0.0279,0.045 c 8e-4,0.002 0.002,0.003 0.003,0.006 4.1e-4,4.3e-4 9.7e-4,0.001 10e-4,0.002 l 5.2e-4,5.2e-4 c 0.005,0.0117 0.0108,0.0227 0.0165,0.0341 0.002,0.004 -0.003,-0.009 -0.005,-0.0129 -0.003,-0.007 -0.006,-0.0122 -0.009,-0.0181 v -0.001 c -4.2e-4,-4.5e-4 -9.9e-4,-7.3e-4 -0.001,-0.002 z m 0.0289,0.0424 c 0.003,0.005 0.005,0.009 0.008,0.0145 -0.002,-0.003 -0.004,-0.008 -0.005,-0.0103 -6.2e-4,-0.002 -0.002,-0.003 -0.003,-0.004 z m -44.85359,0.31729 c -0.002,0.002 -0.003,0.003 -0.005,0.006 -4e-4,6.5e-4 -1.4e-4,0.001 -5.1e-4,0.002 0.002,-0.003 0.004,-0.005 0.006,-0.008 z m -0.007,0.009 c -0.002,0.002 -0.002,0.002 -0.003,0.004 -1.9e-4,3.8e-4 -1.6e-4,9.7e-4 -5.1e-4,0.002 5.3e-4,-8.5e-4 8e-4,-8.7e-4 10e-4,-0.002 0.001,-0.002 0.002,-0.002 0.003,-0.004 z m -0.016,0.0243 c -5.2e-4,9.7e-4 -0.002,0.003 -0.002,0.004 7.1e-4,-9.9e-4 -10e-4,-0.002 0.003,-0.004 z m -0.003,0.008 c -3.7e-4,-3e-5 -0.001,-0.001 -0.002,0.002 -0.003,0.005 -0.0135,0.02 -0.008,0.015 0.006,-0.0105 0.008,-0.012 0.0103,-0.0155 z m -0.0636,0.0982 c -0.001,0.001 -0.001,0.002 -0.002,0.003 -0.002,0.002 -0.003,0.004 -0.004,0.007 0.003,-0.005 0.003,-0.004 0.006,-0.008 4.2e-4,-0.001 8.2e-4,2.3e-4 0.001,-0.002 z m -0.003,0.009 c -7.2e-4,0.002 -0.002,0.003 -0.003,0.005 -0.007,0.0175 -0.0229,0.0777 0.003,-0.005 z m 45.15073,0.0486 -5.1e-4,5.1e-4 c 0.01,0.0103 0.0177,0.0184 0.0243,0.0258 l -0.006,-0.009 c -0.006,-0.006 -0.0152,-0.0151 -0.0176,-0.0176 z m -45.24788,0.11369 c -0.003,0.005 -0.006,0.01 -0.007,0.0129 -10e-4,0.002 -0.002,0.004 -0.003,0.007 0.003,-0.007 0.007,-0.0137 0.01,-0.0202 z m 45.44529,0.2744 c 0.002,0.005 0.004,0.009 0.006,0.0134 0.001,0.003 -0.001,-0.005 -0.002,-0.008 z m -45.64528,0.005 c -0.001,10e-4 -0.002,0.002 -0.003,0.004 l -0.003,0.006 0.006,-0.009 z m -0.005,0.006 c -0.002,0.002 -0.004,0.004 -0.006,0.007 -0.002,0.003 -0.003,0.004 -0.005,0.008 0.004,-0.005 0.008,-0.01 0.0114,-0.015 z m 45.70781,0.0227 c 0.002,0.004 0.006,0.0127 0.0227,0.046 -0.001,-0.003 -0.005,-0.0114 -0.006,-0.015 -0.0105,-0.0205 -0.0127,-0.0248 -0.0171,-0.031 z m 0.0294,0.0274 -5.1e-4,5.1e-4 c 5e-4,4.9e-4 8.5e-4,2.7e-4 0.002,5.2e-4 l -5.1e-4,-5.2e-4 z m 0.005,0.004 c 0.004,0.004 0.007,0.009 0.01,0.0109 0.003,0.003 -0.005,-0.006 -0.007,-0.009 -7.2e-4,-7.2e-4 -0.002,-4.1e-4 -0.003,-0.002 z m -45.84423,0.0796 c -0.002,0.005 -0.004,0.009 -0.008,0.015 -0.002,0.005 -0.007,0.0174 -0.005,0.0134 0.005,-0.009 0.009,-0.0189 0.0129,-0.0284 z m -0.0186,0.0248 -0.004,0.006 c -0.003,0.005 -0.0105,0.0195 -0.007,0.0145 0.005,-0.006 0.007,-0.0135 0.0108,-0.0202 z m 45.9388,0.0196 c 7.7e-4,0.003 0.002,0.006 0.003,0.01 4.6e-4,4.2e-4 0.001,2.4e-4 0.001,5.1e-4 -8.7e-4,-0.003 -0.003,-0.007 -0.004,-0.0103 z m 0.004,0.0114 c 0.002,0.006 0.004,0.0116 0.006,0.0186 -0.001,-0.006 -0.003,-0.0126 -0.005,-0.0186 z m -45.99926,0.0202 c -3e-4,2.2e-4 -0.001,2.9e-4 -0.001,5.2e-4 -0.002,0.002 -0.005,0.006 -0.004,0.005 l 0.005,-0.005 z m 0.003,0.007 c -0.004,0.007 -0.007,0.0129 -0.0114,0.0202 -0.0133,0.0328 -0.002,0.007 0.0114,-0.0202 z m 46.03854,0.0248 c 0.003,0.005 0.006,0.0106 0.0119,0.0217 0.002,0.004 -0.004,-0.009 -0.006,-0.0134 -0.002,-0.002 -0.004,-0.005 -0.006,-0.008 z m -45.21171,0.0439 c -0.0117,0.007 -0.0234,0.0148 -0.0346,0.0227 -0.007,0.005 0.0221,-0.0144 0.0346,-0.0222 z m 0,0.0501 c -0.004,0.007 -0.005,0.008 -0.0109,0.0171 -0.003,0.002 -0.006,0.005 -0.0119,0.0103 8.8e-4,-0.001 0.002,-0.003 0.003,-0.004 h -5.2e-4 c -0.003,0.003 -0.005,0.005 -0.007,0.008 -4e-4,7.9e-4 -3.1e-4,7.6e-4 -5.1e-4,0.002 -0.003,0.004 -0.006,0.009 -0.008,0.0134 0.005,-0.005 0.01,-0.0102 0.0145,-0.016 -0.005,0.01 -0.005,0.008 -0.004,0.007 -0.009,0.0103 -0.0107,0.0124 -0.0186,0.0212 -0.002,0.002 -0.004,0.005 -0.006,0.007 -0.009,0.013 -0.0183,0.0268 -0.0274,0.0398 l -0.0119,0.0119 c -0.0105,0.0192 -0.0234,0.037 -0.0372,0.0543 -5.3e-4,6.7e-4 4.5e-4,7.4e-4 -0.002,0.002 -6.9e-4,8.6e-4 5.7e-4,0.002 -0.002,0.003 -8.4e-4,0.001 -0.002,0.003 -0.003,0.004 l -5.2e-4,5.2e-4 c -2.4e-4,3.8e-4 -3.2e-4,6.1e-4 -5.1e-4,0.002 -0.0153,0.0247 -0.0324,0.0485 -0.0543,0.0677 -3.5e-4,6.8e-4 -0.001,0.001 -0.001,0.002 -4.5e-4,2.5e-4 -0.001,-3.5e-4 -0.002,0 l -5.2e-4,5.1e-4 -5.2e-4,0.001 c -0.007,0.006 -0.013,0.01 -0.0202,0.015 -0.003,0.003 -0.0112,0.0103 -0.0124,0.0103 0.0104,-0.008 0.0193,-0.0145 0.032,-0.0243 v 5.2e-4 c -0.0215,0.0411 -0.0454,0.0823 -0.0811,0.11265 -0.003,0.002 -0.005,0.004 -0.008,0.006 l -5.1e-4,5.2e-4 -5.2e-4,5.2e-4 h -5.2e-4 c 0.002,-0.003 0.004,-0.006 -0.003,-0.002 l -5.1e-4,5.2e-4 c -0.003,0.004 -0.004,0.005 -0.007,0.009 -10e-4,0.001 -0.002,0.002 -0.005,0.004 -6.8e-4,10e-4 -8.4e-4,0.002 -0.002,0.004 6.7e-4,-5.3e-4 8.4e-4,-0.001 0.002,-0.002 9.4e-4,-4.7e-4 0.002,-7.4e-4 0.003,-0.002 0.001,-0.001 0.003,-0.003 0.004,-0.003 -0.003,0.004 -0.006,0.006 -0.009,0.009 -8.8e-4,8.2e-4 -0.002,0.002 -0.004,0.003 h -5.2e-4 v 0.001 c -6.1e-4,9.1e-4 -0.001,0.002 -0.002,0.003 -0.004,0.004 -0.007,0.008 -0.0119,0.0134 l 5.2e-4,-0.002 c 3e-4,-4.3e-4 2.6e-4,-8.1e-4 5.1e-4,-0.002 -0.012,0.0142 -0.0236,0.0287 -0.0367,0.0434 -0.005,0.006 0.0149,-0.0171 0.0274,-0.0305 -0.002,0.003 -0.003,0.006 -0.004,0.008 -0.0102,0.0147 -0.0214,0.0272 -0.0326,0.0398 0.0133,-0.0108 -0.006,0.007 -0.009,0.0103 -0.004,0.004 -0.008,0.009 -0.0119,0.0129 -0.002,0.002 0.002,-5e-4 -0.007,0.009 0.003,-0.003 0.004,-0.004 0.008,-0.007 -0.009,0.01 -0.01,0.01 -0.0124,0.0124 v 5.2e-4 l -5.2e-4,5.1e-4 c -2.7e-4,2.8e-4 -0.001,5.2e-4 -0.001,5.2e-4 -3.8e-4,4e-4 -0.001,3.7e-4 -0.001,0.002 -4.3e-4,6.1e-4 -0.001,0.001 -0.002,0.002 0.0152,-0.0227 0.0267,-0.0424 0.0253,-0.046 -0.001,-0.002 -0.008,0.003 -0.0222,0.017 -0.006,0.0174 -0.0141,0.0333 -0.0217,0.0496 v 5.2e-4 h -5.2e-4 c -3.2e-4,6.9e-4 -0.001,0.001 -0.001,0.002 -8.2e-4,0.002 -0.002,0.003 -0.003,0.005 0.003,-0.004 0.004,-0.005 0.007,-0.009 -5.3e-4,0.002 -0.003,0.006 -0.006,0.0119 0.006,-0.008 0.005,-0.009 0.0124,-0.0191 0.001,-0.002 0.002,-0.003 0.005,-0.007 -5.6e-4,10e-4 -6.2e-4,0.003 -0.001,0.004 l -5.2e-4,5.1e-4 c -0.007,0.0104 -0.0142,0.0212 -0.0217,0.031 -0.01,0.0184 -0.0208,0.0362 -0.0331,0.0532 -0.003,0.006 -0.0153,0.0234 -0.009,0.0145 -0.004,0.006 -0.007,0.0136 -0.0119,0.0196 -0.003,0.004 -0.006,0.007 -0.008,0.0109 2.7e-4,-7.7e-4 0.001,-0.002 0.001,-0.003 -4.8e-4,-5.1e-4 -0.003,0.002 -0.006,0.004 l 0.003,0.002 v 5.1e-4 l 5.1e-4,5.2e-4 c 0.0138,0.013 0.0294,0.0276 0.046,0.0429 0.009,-0.008 0.019,-0.016 0.0279,-0.0243 0.0757,-0.0725 0.14896,-0.14777 0.22066,-0.22427 0.0651,-0.0706 0.12867,-0.14196 0.18397,-0.22066 0.005,-0.007 0.01,-0.0139 0.015,-0.0207 -1.3e-4,-0.0305 -5e-4,-0.0611 -5.1e-4,-0.0915 -2e-5,-0.0395 -1e-5,-0.0789 0,-0.11834 z m 45.30627,0.0698 -5.1e-4,5.1e-4 -5.2e-4,5.2e-4 c 0.002,0.003 0.004,0.005 0.006,0.007 z m 0.007,0.0109 c 0.001,0.002 0.003,0.005 0.004,0.007 -5.2e-4,-9.2e-4 -9.5e-4,-0.002 -10e-4,-0.003 -8.4e-4,-0.001 -0.002,-0.003 -0.003,-0.004 z m -46.392,0.10852 c -8.2e-4,0.002 -0.002,0.004 -0.004,0.006 -0.003,0.005 -0.01,0.0215 -0.007,0.0165 0.004,-0.007 0.007,-0.0149 0.0109,-0.0222 z m 0.84284,0.11007 c -0.006,0.004 -0.008,0.004 -0.0382,0.0248 -0.009,0.006 0.0189,-0.01 0.0269,-0.0155 0.004,-0.003 0.007,-0.006 0.0114,-0.009 z m 45.92278,0.19275 c 0.004,0.005 0.008,0.01 0.0124,0.0134 5.2e-4,5.1e-4 0.001,0.001 0.002,0.002 -4.7e-4,-6e-4 -0.001,-0.001 -0.001,-0.002 -0.004,-0.005 -0.0174,-0.0185 -0.0134,-0.0134 z" />
        <path
           id="rect11"
           style="opacity:1;fill:url(#linearGradient63);stroke:#eceff4;stroke-width:0.529167;stroke-dasharray:none;stroke-opacity:1"
           d="M 166.36504,37.524324 V 143.85272 c 6.60403,0 12.41749,-3.20745 16.02073,-8.14111 0.002,-0.007 0.003,-0.0128 0.007,-0.0243 0.002,-0.006 0.002,-0.006 0.005,-0.0134 v -5.2e-4 -5.2e-4 l 5.2e-4,-5.1e-4 c 0.003,-0.015 0.003,-0.0226 0.006,-0.0336 0.003,-0.0109 0.008,-0.0198 0.0124,-0.0289 v -5.2e-4 c 0.0107,-0.0183 0.0195,-0.038 0.031,-0.0558 7.3e-4,-0.001 0.002,-0.002 0.003,-0.003 6.6e-4,-0.001 0.001,-0.002 0.002,-0.003 0.002,-0.003 0.007,-0.0107 0.005,-0.008 -0.008,0.013 -0.0387,0.0618 0.008,-0.0129 0.005,-0.006 0.009,-0.0119 0.0139,-0.0176 0.003,-0.004 0.006,-0.008 0.009,-0.0114 0.001,-0.002 0.002,-0.003 0.004,-0.005 0.001,-0.001 0.002,-0.003 0.004,-0.005 0.003,-0.004 0.006,-0.008 0.0103,-0.0108 l 0.009,-0.009 c 0.009,-0.0137 0.0211,-0.0324 0.007,-0.009 0.004,-0.006 0.008,-0.0113 0.0129,-0.0171 6.6e-4,-8.2e-4 0.002,-0.002 0.003,-0.004 l 0.006,-0.006 0.004,-0.004 c 3.5e-4,-4.1e-4 1.7e-4,-0.001 5.2e-4,-0.002 0.003,-0.003 0.005,-0.006 0.008,-0.009 5.1e-4,-5.8e-4 0.001,-5.4e-4 0.002,-0.002 5.8e-4,-6.4e-4 10e-4,-0.001 0.002,-0.002 5.7e-4,-6.3e-4 0.001,-7.8e-4 0.002,-0.002 6.6e-4,-7.2e-4 0.001,-0.001 0.002,-0.002 1.5e-4,-2.3e-4 8.3e-4,-7.5e-4 10e-4,-0.001 1.9e-4,-2.4e-4 2.8e-4,-7.8e-4 5.2e-4,-10e-4 0.002,-0.002 0.005,-0.005 0.0103,-0.0114 0.003,-0.003 0.007,-0.008 0.0108,-0.0114 0.008,-0.0161 0.0194,-0.0336 0.0439,-0.0625 v -5.2e-4 c 0.005,-0.005 0.01,-0.0106 0.0145,-0.016 0.004,-0.004 0.008,-0.008 0.0103,-0.0108 6.4e-4,-7.3e-4 0.001,-0.001 0.002,-0.002 2.4e-4,-2.7e-4 2.7e-4,-7.8e-4 5.1e-4,-0.001 0.003,-0.002 0.006,-0.004 0.008,-0.007 0.009,-0.0147 0.0185,-0.0292 0.0289,-0.0429 0.0149,-0.0155 0.0293,-0.0354 0.0475,-0.0486 2.7e-4,-2.5e-4 7.9e-4,-2.7e-4 0.001,-5.1e-4 v -5.2e-4 l 0.006,-0.006 0.008,-0.008 c 6.2e-4,-6.3e-4 10e-4,-7.9e-4 0.002,-0.002 l 5.1e-4,-5.2e-4 h 5.2e-4 v -5.1e-4 l 5.2e-4,-5.2e-4 5.1e-4,-5.2e-4 c 0.008,-0.0114 0.017,-0.0227 0.0253,-0.0341 l 0.0191,-0.0191 c 0.008,-0.007 0.0159,-0.0132 0.0243,-0.0191 l 5.2e-4,-5.1e-4 5.2e-4,-5.2e-4 c 0.001,-0.002 0.001,-0.002 0.003,-0.004 0.001,-0.002 0.002,-0.004 0.003,-0.007 0.002,-0.006 0.0202,-0.027 0.0341,-0.0424 2.10728,-3.15261 3.33726,-6.94633 3.33726,-11.03912 V 57.368074 c 0,-10.993405 -8.85035,-19.84375 -19.84375,-19.84375 z m 16.37988,97.667426 c -0.002,0.002 -0.005,0.006 -0.004,0.005 l 0.005,-0.005 v -5.2e-4 c -3e-4,2.2e-4 -7.5e-4,2.9e-4 -0.001,5.2e-4 z m -0.34727,0.48214 c -0.001,0.005 -0.003,0.0113 -0.004,0.016 -7.6e-4,0.006 -3.5e-4,0.001 -0.001,0.007 -9.1e-4,0.007 0.003,-0.0135 0.005,-0.0232 z m 62.71659,-31.19603 c -10.90675,0 -19.68717,8.78043 -19.68717,19.68717 0,3.54185 0.93631,6.85283 2.56056,9.71827 0.015,0.0101 0.0262,0.0182 0.0351,0.0269 0.0111,0.005 0.0207,0.009 0.0253,0.0129 0.0576,0.0424 0.051,0.0365 0.093,0.093 2.7e-4,4e-4 8.1e-4,6.6e-4 0.001,0.001 3.3e-4,7e-4 7.3e-4,0.001 0.001,0.002 l 5.2e-4,5.1e-4 c 4.5e-4,8.7e-4 6.9e-4,0.002 0.002,0.004 l 5.1e-4,5.2e-4 c 0.001,10e-4 0.002,0.002 0.002,0.003 0.003,0.005 0.007,0.009 0.0103,0.015 8.7e-4,0.001 0.002,0.002 0.003,0.004 l 5.1e-4,5.1e-4 5.2e-4,5.2e-4 c 0.003,0.003 0.007,0.01 0.009,0.0129 l 5.2e-4,5.1e-4 5.2e-4,5.2e-4 c 0.007,0.009 0.0116,0.0154 0.0289,0.0398 -0.0224,-0.0343 0.009,0.013 0.0181,0.0284 2.6e-4,3.8e-4 2.5e-4,6.9e-4 5.2e-4,0.001 0.009,0.0131 0.0242,0.0349 0.0253,0.0372 l -5.2e-4,5.2e-4 c 0.0213,0.0538 0.0341,0.10429 0.0408,0.15038 0.007,0.009 0.0145,0.0178 0.0274,0.0382 0.0132,0.025 0.0203,0.0517 0.0253,0.0791 4.9e-4,0.001 6.1e-4,0.002 0.002,0.004 0.001,0.003 0.002,0.007 0.003,0.0103 0.004,0.0101 0.008,0.0205 0.0114,0.031 v 5.2e-4 c 7.5e-4,0.003 0.002,0.005 0.003,0.008 7e-4,0.001 0.001,0.003 0.002,0.004 0.004,0.008 0.007,0.0161 0.0114,0.0248 l 0.006,0.0176 c 6.9e-4,0.002 5.5e-4,0.004 0.002,0.006 2.6e-4,4.7e-4 2.5e-4,0.001 5.2e-4,0.002 0.001,0.002 0.002,0.004 0.004,0.007 10e-4,0.003 0.002,0.006 0.004,0.008 8.2e-4,0.001 0.002,0.002 0.003,0.004 0.009,0.0145 0.0153,0.0303 0.0207,0.0465 5.7e-4,0.001 0.001,0.002 0.002,0.003 0.19103,0.30572 0.39085,0.6051 0.59789,0.89917 3.3e-4,3.7e-4 7.9e-4,7.2e-4 10e-4,0.001 0.0124,0.0143 0.0235,0.0299 0.0336,0.046 6.6e-4,0.001 0.001,0.002 0.001,0.002 l 5.2e-4,5.2e-4 c 0.003,0.002 -9e-4,-8.3e-4 0.003,0.003 8.9e-4,7.9e-4 0.001,0.001 0.002,0.002 0.003,0.003 0.006,0.005 0.009,0.008 0.002,0.001 0.006,0.006 0.005,0.004 0.0126,0.011 0.0246,0.0223 0.0362,0.0357 0.002,0.003 0.005,0.006 0.007,0.009 0.002,0.003 0.004,0.007 0.006,0.0103 l 5.1e-4,5.2e-4 c 9.8e-4,0.001 1.9e-4,0.001 0.002,0.002 10e-4,0.001 0.002,0.001 0.002,0.002 0.003,0.003 0.003,0.003 0.005,0.006 l 0.009,0.009 c 9.8e-4,0.002 0.003,0.004 0.005,0.006 0.009,0.008 0.0185,0.0164 0.0284,0.0258 0.0142,0.0153 0.0255,0.0321 0.0362,0.0496 2.4e-4,4.1e-4 8.6e-4,7e-4 10e-4,0.001 v 5.1e-4 c 2e-4,3.3e-4 3.2e-4,7.8e-4 5.2e-4,10e-4 h 5.1e-4 c 7e-4,6.8e-4 0.001,5.5e-4 0.002,0.002 10e-4,0.001 0.003,0.002 0.004,0.004 5.4e-4,4.9e-4 0.001,0.001 0.002,0.002 0.005,0.005 0.0106,0.01 0.0155,0.015 0.005,0.005 0.0139,0.009 0.0145,0.015 v 5.2e-4 c 0.004,0.004 0.009,0.009 0.0134,0.0129 0.0124,0.0136 0.0219,0.0287 0.031,0.0439 l 5.1e-4,5.2e-4 v 5.2e-4 h 5.2e-4 c 0.001,0.001 0.003,0.002 0.004,0.004 5.5e-4,5e-4 0.001,10e-4 0.002,0.002 0.005,0.005 0.0106,0.01 0.0155,0.015 0.005,0.005 0.0139,0.009 0.0145,0.015 0.002,0.002 0.001,0.001 0.003,0.003 0.004,0.003 0.007,0.007 0.0109,0.01 0.0148,0.016 0.0268,0.0338 0.0367,0.0527 0.008,0.009 0.0159,0.0191 0.0238,0.0289 0.004,0.004 0.0121,0.0185 0.0196,0.031 l 5.1e-4,5.2e-4 c 10e-4,0.002 0.002,0.003 0.003,0.004 v 5.2e-4 c 6e-4,6e-4 0.001,6.2e-4 0.002,0.002 l 0.0119,0.0119 c 0.0209,0.0239 0.0317,0.0529 0.0429,0.0816 -6.4e-4,-0.002 -9.4e-4,-0.004 -0.002,-0.006 -0.007,-0.0205 2.8e-4,-0.003 0.005,0.0103 0.004,0.008 0.0101,0.0191 0.003,0.006 0.0123,0.0167 0.0235,0.0397 0.0336,0.062 3.3e-4,5.1e-4 7.7e-4,0.001 0.001,0.002 6e-5,-9e-5 0.003,0.006 0.005,0.01 0.003,0.005 0.006,0.0105 0.008,0.016 0.009,0.0148 0.0162,0.0346 0.0217,0.047 0.001,0.004 0.002,0.007 0.004,0.0109 3.59579,4.63119 9.21589,7.60471 15.55926,7.60471 h 0.31316 V 104.48251 Z M 228.1716,134.059 c -0.002,-0.002 -0.005,-0.007 -0.007,-0.009 5.6e-4,10e-4 0.001,0.002 0.002,0.003 0.002,0.002 0.003,0.004 0.005,0.006 z m -0.13074,-0.13333 c 0.006,0.005 0.012,0.0109 0.0186,0.016 0.006,0.005 -0.01,-0.0105 -0.016,-0.0145 -6.7e-4,-4.6e-4 -0.002,-8.9e-4 -0.003,-0.002 z m -0.002,0.002 c 0.006,0.007 0.0121,0.014 0.0202,0.0232 0.005,0.005 -0.009,-0.0115 -0.0129,-0.0165 l -0.007,-0.007 z m 0.0811,0.0574 c 0.005,0.007 0.0138,0.0196 0.017,0.0248 -0.005,-0.006 -0.009,-0.0123 -0.0134,-0.0186 -0.003,-0.005 -0.003,-0.005 -0.004,-0.006 z m 0.0269,0.0429 c 0.001,0.002 0.002,0.004 0.003,0.007 4.1e-4,4.3e-4 6.1e-4,5.5e-4 0.001,0.002 2.5e-4,2.6e-4 2.5e-4,8.1e-4 5.2e-4,0.001 0.005,0.0117 0.0108,0.0232 0.0165,0.0346 0.002,0.004 -0.003,-0.009 -0.005,-0.0134 -0.003,-0.007 -0.006,-0.0127 -0.009,-0.0186 v -5.1e-4 c -4.2e-4,-4.5e-4 -6.3e-4,-5.5e-4 -10e-4,-0.002 -0.002,-0.003 -0.004,-0.007 -0.006,-0.0103 z m 0.0284,0.0424 c 0.003,0.005 0.006,0.0107 0.009,0.016 -0.002,-0.003 -0.004,-0.008 -0.005,-0.01 -0.001,-0.002 -0.003,-0.004 -0.004,-0.006 z m -45.34607,1.03818 c -2.6e-4,2.5e-4 -8.2e-4,2.6e-4 -0.001,5.1e-4 -0.004,0.007 -0.007,0.0139 -0.0114,0.0222 -9.9e-4,0.002 -9.8e-4,0.003 -0.002,0.007 7e-4,-0.001 0.001,-0.002 0.002,-0.003 0.004,-0.009 0.008,-0.0179 0.0124,-0.0269 z m -0.0212,0.0279 -0.006,0.009 c -0.003,0.005 -0.01,0.0195 -0.007,0.0145 0.005,-0.008 0.009,-0.0155 0.0129,-0.0233 z m -0.0269,0.009 c 0.005,-0.006 0.005,-0.007 -0.005,0.009 -0.004,0.006 -0.008,0.0111 -0.0124,0.0165 0.004,-0.007 0.013,-0.0193 0.0176,-0.0258 z m -0.032,0.0532 c -0.004,0.007 -0.007,0.0133 -0.0114,0.0202 -0.0133,0.0328 -0.002,0.007 0.0114,-0.0202 z m -0.25166,0.30386 c -0.001,0.002 -0.003,0.004 -0.005,0.006 -0.003,0.005 -0.01,0.0215 -0.007,0.0165 0.004,-0.008 0.008,-0.0147 0.0114,-0.0222 z m -0.0594,0.0682 c -0.005,0.01 -0.011,0.0184 -0.016,0.0274 0.002,-0.004 0.004,-0.009 0.007,-0.0134 0.003,-0.005 0.0126,-0.019 0.009,-0.014 z m 46.74392,0.13901 c 0.004,0.005 0.008,0.009 0.0119,0.014 h 5.2e-4 c -0.004,-0.005 -0.0164,-0.0191 -0.0124,-0.014 z m 0.009,0.0124 c -4.3e-4,-5e-4 0.005,0.004 0.007,0.006 -2.2e-4,-3.1e-4 -3e-4,-8e-4 -5.2e-4,-10e-4 -0.002,-0.002 -0.004,-0.003 -0.006,-0.005 z m 0.0708,0.0811 c 0.004,0.005 0.008,0.0101 0.0124,0.0139 5.2e-4,5.1e-4 0.001,0.001 0.002,0.002 -4.7e-4,-6e-4 -6.3e-4,-0.001 -0.001,-0.002 -0.004,-0.005 -0.0174,-0.0189 -0.0134,-0.0139 z m 0.0465,0.0723 c 0.006,0.004 0.0124,0.009 0.0186,0.0129 -0.001,-0.001 -0.002,-0.002 -0.004,-0.003 -0.004,-0.004 -0.009,-0.006 -0.015,-0.01 z" />
      </g>
    </g>
  </g>
</svg>
