<?xml version="1.0" encoding="UTF-8" standalone="no"?>
<!-- Created with Inkscape (http://www.inkscape.org/) -->

<svg
   width="297mm"
   height="210mm"
   viewBox="0 0 297 210"
   version="1.1"
   id="svg1"
   inkscape:version="1.3.2 (091e20e, 2023-11-25)"
   sodipodi:docname="favicon.svg"
   inkscape:export-filename="favicon.png"
   inkscape:export-xdpi="96"
   inkscape:export-ydpi="96"
   xmlns:inkscape="http://www.inkscape.org/namespaces/inkscape"
   xmlns:sodipodi="http://sodipodi.sourceforge.net/DTD/sodipodi-0.dtd"
   xmlns="http://www.w3.org/2000/svg"
   xmlns:svg="http://www.w3.org/2000/svg">
  <sodipodi:namedview
     id="namedview1"
     pagecolor="#ffffff"
     bordercolor="#000000"
     borderopacity="0.25"
     inkscape:showpageshadow="2"
     inkscape:pageopacity="0.0"
     inkscape:pagecheckerboard="0"
     inkscape:deskcolor="#d1d1d1"
     inkscape:document-units="mm"
     inkscape:zoom="8.0530018"
     inkscape:cx="563.01986"
     inkscape:cy="398.7333"
     inkscape:window-width="1920"
     inkscape:window-height="941"
     inkscape:window-x="0"
     inkscape:window-y="25"
     inkscape:window-maximized="0"
     inkscape:current-layer="layer1" />
  <defs
     id="defs1" />
  <g
     inkscape:label="Layer 1"
     inkscape:groupmode="layer"
     id="layer1">
    <rect
       style="opacity:1;fill:#eceff4;fill-opacity:1;stroke-width:49.9999;stroke-dasharray:none"
       id="rect8"
       width="8.4666662"
       height="8.4666662"
       x="144.26666"
       y="100.76667" />
    <g
       id="g8"
       transform="matrix(1.4943342,0,0,1.464821,32.542014,45.429539)">
      <path
         d="m 79.208139,42.433226 c -0.17352,0.07248 -0.35813,0.116935 -0.54545,0.141271 v 0.59862 h 0.54545 z"
         style="font-size:133.125px;font-family:'Arial Unicode MS';-inkscape-font-specification:'Arial Unicode MS, Normal';opacity:1;fill:#2e3440;fill-opacity:1;stroke-width:0.0716039;stroke-dasharray:none"
         id="path7" />
      <path
         d="m 78.662689,38.754542 c 0.007,6.45e-4 0.014,8.7e-4 0.0209,0.0016 0.18015,0.0116 0.35893,0.053 0.52452,0.124883 v -0.719299 h -0.54545 z"
         style="font-size:133.125px;font-family:'Arial Unicode MS';-inkscape-font-specification:'Arial Unicode MS, Normal';opacity:1;fill:#2e3440;fill-opacity:1;stroke-width:0.0716039;stroke-dasharray:none"
         id="path6" />
      <path
         d="m 75.988629,38.161682 v 0.572246 0.0911 0.486701 0.09113 2.529033 0.09117 0.486701 0.09128 0.572069 h 0.54265 v -0.57198 -0.09137 -0.486701 -0.09126 -1.144137 h 2.13141 v 1.109825 c 0.14646,-0.02874 0.28435,-0.09254 0.40465,-0.182966 0.0531,-0.04002 0.0995,-0.08893 0.1408,-0.142339 v -1.817939 c -0.0134,-0.01703 -0.027,-0.03395 -0.0416,-0.05061 -0.11961,-0.132713 -0.28593,-0.222835 -0.46173,-0.262374 -0.014,-0.0032 -0.0281,-0.0056 -0.0421,-0.0082 v 0.867909 h -2.13141 v -0.898106 -0.09113 -0.486701 -0.0911 -0.572246 z"
         style="font-size:133.125px;font-family:'Arial Unicode MS';-inkscape-font-specification:'Arial Unicode MS, Normal';opacity:1;fill:#2e3440;fill-opacity:1;stroke-width:0.0716039;stroke-dasharray:none"
         id="path5" />
      <path
         d="m 76.622359,38.825033 v 0.486701 h 1.54887 c 0.15835,0 0.29083,0.0056 0.4004,0.01614 0.0208,0.002 0.0421,0.0039 0.0611,0.0062 0.01,0.0012 0.02,0.0037 0.0299,0.0053 0.11171,0.01776 0.22567,0.0572 0.3421,0.120546 0.0729,0.0386 0.1403,0.09205 0.20335,0.157171 0.0316,0.03267 0.0619,0.06895 0.0911,0.108294 0.0138,0.01861 0.028,0.03611 0.0412,0.05622 0.0988,0.14545 0.16597,0.307687 0.2014,0.486701 0.0373,0.17715 0.0559,0.184338 0.0559,0.389458 0,0.371082 -0.0476,0.437519 -0.14267,0.663151 -0.046,0.109201 -0.0981,0.203221 -0.1559,0.282721 -0.0289,0.03969 -0.0593,0.07554 -0.0911,0.107827 -0.0361,0.03667 -0.0739,0.06903 -0.11385,0.09615 -0.14358,0.09883 -0.28625,0.159432 -0.42797,0.181809 -0.001,1.73e-4 -0.002,3.02e-4 -0.004,4.91e-4 -0.0294,0.0047 -0.06,0.0086 -0.0911,0.01232 -0.11604,0.01368 -0.24363,0.02077 -0.38361,0.02077 h -1.56512 v 0.4867 h 1.62159 c 0.11498,0 0.22384,-0.0058 0.32769,-0.01619 0.0308,-0.0031 0.0612,-0.0067 0.0911,-0.0107 0.20488,-0.02757 0.38679,-0.07668 0.54545,-0.147565 0.0312,-0.01395 0.0616,-0.02869 0.0911,-0.04432 0.17333,-0.09204 0.31601,-0.212811 0.42724,-0.363041 0.28716,-0.389729 0.43075,-0.654772 0.43075,-1.258946 0,-0.317004 -0.0354,-0.402511 -0.10629,-0.624414 -0.069,-0.223768 -0.16503,-0.421438 -0.28811,-0.592993 -0.1212,-0.171556 -0.26385,-0.305834 -0.42795,-0.402801 -0.0117,-0.0071 -0.0238,-0.01266 -0.0356,-0.01941 -0.0302,-0.01724 -0.0603,-0.03446 -0.0911,-0.04917 -0.12378,-0.05921 -0.25215,-0.09802 -0.38519,-0.116033 -0.0504,-0.0074 -0.10434,-0.01339 -0.16026,-0.01868 -0.0294,-0.0028 -0.0602,-0.005 -0.0911,-0.0072 -0.11897,-0.0085 -0.24783,-0.01323 -0.38922,-0.01323 z"
         style="font-size:133.125px;font-family:'Arial Unicode MS';-inkscape-font-specification:'Arial Unicode MS, Normal';opacity:1;fill:#2e3440;fill-opacity:1;stroke-width:0.0716039;stroke-dasharray:none"
         id="path8" />
      <path
         d="m 75.897569,42.509766 v -0.486701 h -0.31534 v -2.711331 h 0.31534 v -0.486701 h -0.85799 v 3.684733 z"
         style="font-size:133.125px;font-family:'Arial Unicode MS';-inkscape-font-specification:'Arial Unicode MS, Normal';opacity:1;fill:#2e3440;fill-opacity:1;stroke-width:0.252335;stroke-dasharray:none"
         id="path4" />
    </g>
  </g>
</svg>
